
<svg xmlns="http://www.w3.org/2000/svg" width="24" height="24" viewBox="0 0 24 24">
<symbol id="add" viewBox="0 0 24 24"><path d="M12 2c5.514 0 10 4.486 10 10s-4.486 10-10 10-10-4.486-10-10 4.486-10 10-10zm0-2c-6.627 0-12 5.373-12 12s5.373 12 12 12 12-5.373 12-12-5.373-12-12-12zm6 13h-5v5h-2v-5h-5v-2h5v-5h2v5h5v2z"/></symbol>
<symbol id="arrow_right_1" viewBox="0 0 24 24"><path d="M21 12l-18 12v-24z"/></symbol>
<symbol id="down" viewBox="0 0 24 24"><path d="M12 21l-12-18h24z"/></symbol>
<symbol id="edit" viewBox="0 0 24 24"><path d="M8.424 12.282l4.402 4.399-5.826 1.319 1.424-5.718zm15.576-6.748l-9.689 9.804-4.536-4.536 9.689-9.802 4.536 4.534zm-6 8.916v6.55h-16v-12h6.743l1.978-2h-10.721v16h20v-10.573l-2 2.023z"/></symbol>
<symbol id="exit" viewBox="0 0 24 24"><svg width="24" height="24" xmlns="http://www.w3.org/2000/svg" fill-rule="evenodd" clip-rule="evenodd"><path d="M11 21h8v-2l1-1v4h-9v2l-10-3v-18l10-3v2h9v5l-1-1v-3h-8v18zm10.053-9l-3.293-3.293.707-.707 4.5 4.5-4.5 4.5-.707-.707 3.293-3.293h-9.053v-1h9.053z"/></svg></symbol>
<symbol id="eye" viewBox="0 0 24 24"><path d="M12.015 7c4.751 0 8.063 3.012 9.504 4.636-1.401 1.837-4.713 5.364-9.504 5.364-4.42 0-7.93-3.536-9.478-5.407 1.493-1.647 4.817-4.593 9.478-4.593zm0-2c-7.569 0-12.015 6.551-12.015 6.551s4.835 7.449 12.015 7.449c7.733 0 11.985-7.449 11.985-7.449s-4.291-6.551-11.985-6.551zm-.015 3c-2.209 0-4 1.792-4 4 0 2.209 1.791 4 4 4s4-1.791 4-4c0-2.208-1.791-4-4-4z"/></symbol>
<symbol id="folder_add" viewBox="0 0 24 24"><path d="M19.5 13c-2.483 0-4.5 2.015-4.5 4.5s2.017 4.5 4.5 4.5 4.5-2.015 4.5-4.5-2.017-4.5-4.5-4.5zm2.5 5h-2v2h-1v-2h-2v-1h2v-2h1v2h2v1zm-7.18 4h-14.82v-20h7c1.695 1.942 2.371 3 4 3h13v7.82c-.576-.554-1.252-1.006-2-1.319v-4.501h-11c-2.34 0-3.537-1.388-4.916-3h-4.084v16h11.502c.312.749.765 1.424 1.318 2z"/></symbol>
<symbol id="help" viewBox="0 0 24 24"><path d="M14.601 21.5c0 1.38-1.116 2.5-2.499 2.5-1.378 0-2.499-1.12-2.499-2.5s1.121-2.5 2.499-2.5c1.383 0 2.499 1.119 2.499 2.5zm-2.42-21.5c-4.029 0-7.06 2.693-7.06 8h3.955c0-2.304.906-4.189 3.024-4.189 1.247 0 2.57.828 2.684 2.411.123 1.666-.767 2.511-1.892 3.582-2.924 2.78-2.816 4.049-2.816 7.196h3.943c0-1.452-.157-2.508 1.838-4.659 1.331-1.436 2.986-3.222 3.021-5.943.047-3.963-2.751-6.398-6.697-6.398z"/></symbol>
<symbol id="home" viewBox="0 0 24 24"><path d="M20 7.093v-5.093h-3v2.093l3 3zm4 5.907l-12-12-12 12h3v10h7v-5h4v5h7v-10h3zm-5 8h-3v-5h-8v5h-3v-10.26l7-6.912 7 6.99v10.182z"/></symbol>
<symbol id="menu_3" viewBox="0 0 24 24"><path d="M13 6h-13v-4h13v4zm0 4h-13v4h13v-4zm0 8h-13v4h13v-4zm3-8l4 5.075 4-5.075h-8z"/></symbol>
<symbol id="paper_add" viewBox="0 0 24 24"><path d="M18.5 15c-2.483 0-4.5 2.015-4.5 4.5s2.017 4.5 4.5 4.5 4.5-2.015 4.5-4.5-2.017-4.5-4.5-4.5zm2.5 5h-2v2h-1v-2h-2v-1h2v-2h1v2h2v1zm-7.18 4h-12.82v-24h10.189c3.163 0 9.811 7.223 9.811 9.614v3.887c-.624-.261-1.297-.422-2-.476v-2.569c0-4.106-6-2.456-6-2.456s1.518-6-2.638-6h-7.362v20h9.501c.313.749.765 1.424 1.319 2z"/></symbol>
<symbol id="text" viewBox="0 0 24 24"><path d="M22 0h-20v6h1.999c0-1.174.397-3 2.001-3h4v16.874c0 1.174-.825 2.126-2 2.126h-1v2h9.999v-2h-.999c-1.174 0-2-.952-2-2.126v-16.874h4c1.649 0 2.02 1.826 2.02 3h1.98v-6z"/></symbol>
<symbol id="user_add" viewBox="0 0 24 24"><path d="M8.602 3.7c-1.154 1.937-.635 5.227 1.424 9.025.93 1.712.697 3.02.338 3.815-.982 2.178-3.675 2.799-6.525 3.456-1.964.454-1.839.87-1.839 4.004h-1.995l-.005-1.241c0-2.52.199-3.975 3.178-4.663 3.365-.777 6.688-1.473 5.09-4.418-4.733-8.729-1.35-13.678 3.732-13.678 3.321 0 5.97 2.117 5.97 6.167 0 3.555-1.949 6.833-2.383 7.833h-2.115c.392-1.536 2.499-4.366 2.499-7.842 0-5.153-5.867-4.985-7.369-2.458zm15.398 15.8c0 2.485-2.017 4.5-4.5 4.5s-4.5-2.015-4.5-4.5 2.017-4.5 4.5-4.5 4.5 2.015 4.5 4.5zm-2-.5h-2v-2h-1v2h-2v1h2v2h1v-2h2v-1z"/></symbol>
<symbol id="video" viewBox="0 0 24 24"><path d="M12 2c5.514 0 10 4.486 10 10s-4.486 10-10 10-10-4.486-10-10 4.486-10 10-10zm0-2c-6.627 0-12 5.373-12 12s5.373 12 12 12 12-5.373 12-12-5.373-12-12-12zm-3 17v-10l9 5.146-9 4.854z"/></symbol>
</svg>